<svg version="1" xmlns="http://www.w3.org/2000/svg" width="411" height="552.8"><path d="M128.7 226.1c-1.6.9-2.6 1.6-2.6 3.2 0 2.5 1.6 3.5 3 3.5 1.1 0 2.8-.8 3.6-1.6v-7l-4 1.9zM183.2 216.8c-2.7 0-4.9 2.7-4.9 7.6 0 5.4 2.4 9.4 5.9 9.4 2.7 0 4.9-2 4.9-7.9 0-5-1.9-9.1-5.9-9.1z"/><path d="M206.9 97.4V32l-.1-.1-2 2.7C168 81 113 109.7 56.1 120c-7.8 1.5-14.9 1.5-22.1 2.5-2.6 10.6-1 289.2-1 289.2 0 16.8-1 34.4 20.3 46.5.3.3.4.3.7.3 6.9 3.9 14.9 7.3 22.2 10.5 28.5 12.3 57.2 23.4 85.9 35.2 7.2 3.1 14.6 6 21.6 9.4 2.4 1.2 4.8 2.2 7.3 3.2 4.9 2.1 10.3 5.2 15.6 5h-.2V487c-.3.7-.5 1.6-.7 2.7v-.3c-.2-.2-.2-.5-.3-.7-1.6-3.5-1.3-22.5-4-19.8-.5.3-1 3.7-2 3.3-2.5-.8.2-6.6 0-8.2 0-.7 0-1.5-.5-2-16.8-29.2-91.1-46.8-117.8-34.6-.2.2-.5.4-.6.7-1.3 3.7 9.5 16.4 16.6 20.4 6.9 4 15 4.3 22.4 4.9 44.7 4.9 64.9-6.5 85.7 35.1l.4 1.3c0 1-3.5-1.7-7.4-5.9-4.9-5.3-9.2-9.9-14.6-15-11.9-11.3-42.6-4.9-57.9-5.3-20.8-.5-43.9-13.3-51.9-33.7-.2-.6 0-.8 0-.9 0 0-.1 0-.2.1-1.6.3-6.5 2.3-18.1 5.7-.2 0 1-.8 1.4-1 2.7-2.4 13.9-7.5 16.3-8.7 5.9-38 44.5-29.7 45.5-29.5 8.9 2 21.8 7.5 24.7 8.9 12.5 5.7 1-.6-20.8-4.8-5.5-1-18.8-2.4-29.2 2-7.2 3.4-13.4 10.9-14.5 21.2l.2-.4c.4.8 12.9-4.3 15.8-4.6 32.3-4.7 88.1 10.9 106.6 43.1.7-.5 1.2-1.3 1.8-2 .7-1 1.3-2.8 1.6-4.4.7-2.8-9.4-15.4-8.6-16.3l2.3 2c2.5 2.9 4.8 6.6 7.5 8.1v-36.6c-.3-.1-.5-.4-.5-.9 0-.1.1-.6.5-.9v-20.9h-1.5c-28.5 0-51.8-23.9-51.8-53.2 0-12.3 4.1-23.6 10.7-32.5 2-2.4 4-4.6 5.9-6.5 9.3-8.7 21.6-14.1 35-14.1h1.6V274h-.2c-.8-.2-1.3 0-1.5 0v-.6h.5c.2 0 .6 0 .6-.3v-2.7c0-1 0-1.5-.5-2-.2-.3-.5-.3-1-.3-.4 0-1 .1-1.4.6-.1.2-.4.5-.4.8v3.4c0 .4 0 .7.3.7h.6v.4h-3s-.2 0-.2-.2v-.4h.6c.2.1.6-.2.6-.2v-3l.4-4.7c0-1-.2-1.1-.7-1.3l-.4-.2v-.2s.2 0 .2-.2l1.5-.7c.1-.2.2-.2.4-.2v5.5c.5-.6 1.3-1 2-1s1.1.3 1.5.6c0 0 .1.1.1.2v-16.8H73.9v-.8h132.5V234c-.1.1-.2.1-.3.2-1.3.6-2.1 1-3.3 1-2.7 0-5.1-1.7-5.1-6.4v-8.3c0-2.5-.4-2.7-1.4-3l-1.4-.3v-1l3-.2 3-.5c-.2 1.3-.2 3.3-.2 6.2v5.9c0 4 1.9 4.9 3.7 4.9.7 0 1.4-.1 2.1-.3v-15l-.4-.1v-1h.4v-39.3h-9.8c-1.6-.6-1.2-2.7-2.5-3.5-2-1.5-4.3-2-6.5-2.3-4.6-.4-9.1.3-13.7.5l-27.2 2.6c-5.2.4-10.4 1-15.5 1.2v-3.8c.5 0 1 0 1.4-.2 2.6 0 5.1-.4 7.9-.6h-.1c12.7-1.2 25.2-2.4 37.9-3.4 4.2-.2 8.5-.5 12.9.5 2.7.7 5.6 2.3 6.9 4.9h8.3v-.2h-7.9c-1.3-2.8-4.2-4.4-6.9-4.9-4.3-1-8.6-.8-12.9-.6-12.7 1-25.3 2.2-37.9 3.4-2.7.2-5.2.5-7.9.5 1.7-2.5 3.6-4.9 5.3-7.1 2 .4 4 .5 5.9.4 8.2-.2 16-2 24-3.2-8.4.5-17.2 1.7-25.7-.3-1-.3-2.3-.5-3.3-1.2s-.2-2.2.8-1.8c6.6 2.4 13.9 2 20.6 1.6 9.2-.5 18.4-1.4 27.7-1.3 3 0 5.9.4 8.7 1.6-2.3-2-5.1-3-7.9-3.7-9.6-2.7-19.4-4.3-29-6.3-5.7-1.3-11.6-3-16.6-6.5-1.3-.6-.2-2.8 1-1.8 4.6 3 9.9 4.9 15.2 5.9 9.6 2.2 19.5 3.8 29.1 6.2 3.5 1 6.9 2 9.7 4.5-2.2-2.8-5.2-4.6-8.2-6.3-7.6-4.5-15.6-8.2-23.5-12.3-5.4-3-10.9-5.9-15-10.7-.3-.4-1-1-.7-1.6 0-1 1.3-1 1.7-.3 3.6 4.2 8.1 7.1 12.9 9.6 7.3 4 14.8 7.5 22.1 11.5 4 2.3 8.2 4.5 11.5 7.7-1.7-2.8-3.8-4.9-5.9-7.2-5.9-6.2-12.7-11.9-19.1-17.8-4.6-4.4-8.9-8.9-11.7-14.6-.8-.8.3-2.4 1.3-1.8.7 1 1 2 1.7 3 3.4 5.4 7.9 9.7 12.6 13.9 4.9 4.8 10.2 9.3 15 14.1 2.6 2.6 5.1 5.1 7.1 8.1-.3-4.4-2.5-8.2-4.5-12.1-3-6.1-6.5-12.4-7.6-19.3-1-5.3.6-10.9 4-15 .7-.8 2.2-.2 2 .8-.7 1.5-2 2.6-2.5 4-2.2 4.3-2 9.3-.6 13.7 1.4 4.9 4 9.4 6.2 13.9 2.3 4.4 4.6 8.9 5.2 13.6-.2-6.8 1.7-13.4 4.1-19.7V97.4c.1 1.2.3 2.5.4 3.7v-2.4c0-.2 0-.4.1-.7-.2-.1-.2-.4-.2-.6zm-64 348.5h-1.3c-2.4-1-1.2-7.3-8.4-2.8-.4 1-3.4 1-5.9-.2-.8-.6-2.5-2-3-2.8-5.3-1-2.4 2.7-4.4 3.3-9.5 3-38-14.8-28.7-10.4 6.9 3.4 20.1 2.7 26.4-2h-.1c3.8-3 4 5.9 7.5 4 5.6-2 4.9-7.9 11.2 1 13.3-1.7 4.9-4.7 14.8 1.3 4.4 2.5 17.8 4.7 19 9.4-3 1-13.3-5.9-27.1-.8zm4.3 22.5c19.7-2.8 33.6 6.1 44 22.4.4.4.5.5.1.2 0-.1-.1-.1-.1-.2-2.6-2.1-17.6-13.4-27.4-15.5-8.1-1.7-41.9-4.7-16.6-6.9zM195 400l2.2.3h2.3v.5h-.7c-.6 0-.8.4-1 .8v3l-.2 3.5c0 .7.1 1.5.5 2 .4.9 1.4 1.3 2.4 1.3.9 0 1.8-.2 2.4-.8.6-.6.8-1.6 1-2.8v-5.9c0-.5-.3-.8-.7-.8h-.7v-.7s.8.3 2 .3h1.8v.5h-.7c-.7 0-.7.4-.7.7-.2.2-.2 2.5-.2 2.7l-.2 3.6c-.1 1.4-.4 2.2-1.4 3.2-.7.5-1.6.8-3 .8v-.3c-1 0-1.7-.1-2-.4-1-.4-1.6-1.2-2-2.2v-3.8l.3-4c0-.5-.1-.7-.6-.7h-.8v-.8zm-37.1-6c-.3.3-.8.3-1 0l-.1-.1c-.2-.3-.6-.8-.2-1.3.3-.3.7-.6 1.3 0 .4.5.5.9 0 1.4zm9.6 7.4c0 .3-.6.5-1 .3-.4-.3-.8-.7-.4-1.3.1-.3.6-.7 1.4-.3.3.3.4.8 0 1.3zm18.9 12.3l3.7-15.5v-.3l.7.2v.2l-3.4 15.5c0 .2-.2.2-.2.2l-.8-.1v-.2zm-6.5-6.9c.2-.2.4-.7 1.2-.5.4.2.7.7.4 1.2 0 .6-.5.8-1 .6-.3-.1-.8-.3-.6-1.3zm-3.7-11.3c.1 0 .3-.2.3-.5v-.3h.2l1.4-.3h.4v.3l-.6 5.9-.4 4.9c0 .5.4.8.7 1l.6.2v.3l-.3.3c-.3 0-.7-.3-1.7-.8l-2-.8v-.5c.2-.2.2-.2.2 0h.4c.4.3.7.2.7-.3l.3-3.4-3.5-1.7-2.3 2.4c-.1.1-.3.2-.3.4-.1.2.2.5.2.5l1 .3v.3l-.2.4h-.2l-1.6-.8c-1.1-.5-1.5-.5-1.5-.8v-.4h.2l.6.2c.3.3.6.1 1-.2l3.4-3.5c.2-.1 2.8-2.7 3-3.1zm-10-7.6c.8-.1 1.6.2 2.3.7s1.1 1.3 1.4 1.3v.2h.5v.3l-1.3 2.2c-.1.2-.1.2-.3.2v-.2c0-.4.2-1 0-2 0-.7-.3-1.2-1-1.7-1.1-.8-2.1-.2-2.6.4-.3.4-.5.9-.5 1.6.2.6.8 1.5 1 1.8.7 1 1.3 1.6 1.3 2.6.1.7 0 1.4-.6 2.2-1.1 1.6-2.9 2.3-4.7 1l.1-.2c-.8-.7-1.3-1.3-1.6-2.3 0-.2-.2-.2-.2-.2h-.5v-.3l2-2.2.2.2c-.3.5-.6 1-.6 2 0 .8.4 1.7 1 2.3 1 .6 2.2.6 3-.4.9-1.4.3-2.6-.4-3.6-.2-.4-1-1.4-1.2-2.4 0-.7.2-1.5.7-2.5.5-.6 1.4-1 2-1zm-12.9-5.9l2.6-2.6c.5-.4.5-.7.2-1l-.5-.6v-.2l.2-.3h.2l1.4 1.7 1.6 1.6v.2l-.3.2h-.2l-.5-.7c-.4-.3-.8-.3-1 0l-1.5 1.4-.8.7-2.3 2.4c-.5.5-1 1.1-1.3 1.7 0 1.1.4 2 1 2.7s1.5 1.2 2.3 1.2 1.7-.4 2.5-1.4l2.5-2.2 1.8-2c.2-.2.2-.7 0-1l-.5-.5v-.3l.4-.3 1.3 1.5c.8.8 1.1 1.3 1.3 1.3v.2l-.2.2h-.2l-.3-.5c-.5-.4-1 0-1 0l-2 1.8-2.7 2.4c-1 .9-2 1.2-3 1.2-.8-.1-1.8-.5-2.8-1.7l.1.3c-.5-.7-1-1.2-1.2-1.7-.4-1-.3-2 .2-2.7.4-.9 1.2-1.6 2.7-3zm41.8-114.3c1-.1 1.7.5 2 .7.3-.4.9-.8 1.3-.8.6-.1.8.3.8.6s-.2.7-.5.7-.5-.1-.5-.3h-.3l-.4.2c0 .2.3.6.3 1.2.1.7 0 1.2-.3 1.7-.3.6-1.2 1-1.6 1h-.8c-.3.2-.8.6-.8 1 .2.6 1 .4 2 .4 1.3-.2 2-.1 2.5.3.8.4 1 .9 1 1.4.1.5-.1 1.2-.7 2-.5.2-1.2.7-2.5 1l-.3-.3c-.8 0-1.6 0-2.2-.4-.7 0-1-.5-1-1-.1-.8.7-1.6 1.2-2-.5-.2-1-.6-1-1-.1-.8.6-1.4 1.2-1.8-.7 0-1.5-.7-1.7-2-.1-1.1.6-2.3 2.3-2.6zm-10.7 2.4h1.3c.1-.2.2-.2.4-.2.1-.1.3 0 .3.3l.3 1.8.3 1c.1.6.2 1.5.8 2.3.5.3 1 .3 1.3.3.5-.2.9-.7 1.2-1.2v-.5l-.8-3.6c-.1-.3-.4-.3-.7-.3h-.3l-.2-.3c0-.2 0-.2.2-.2l1.3-.2.2-.2h.2c.2 0 .2.1.2.3l.3 2 .3.6.3 1.8c.2.4.5.4.5.4l.5-.2h.2v.4l-1.4.8c0 .2-.2.2-.2.2-.2 0-.2 0-.2-.2l-.2-.8c-.4.8-1 1.4-2 1.6-.5.2-.8.2-1.5-.2-.8-.8-.9-1.3-1.3-3l-.3-1.7c-.1-.5-.4-.5-.8-.5h-.2v-.3c-.2 0 0 0 0-.2zm-6.1 2.9c.5-.8 1.2-1.1 1.7-1.3.8-.2 1.7-.1 2.3.2.9.4 1.4 1 1.7 2 .6 1.6-.3 3.7-2 4.4l-.2-.1c-.6.3-1.6.4-2.4-.4-.9-.4-1.3-1-1.6-2-.2-.8-.1-1.8.5-2.8zm-19 4.3h.3c.4.1.6 0 1-.2.7-.4 1.3-.6 2.5-1.4l1.3-.8 2.6-1.6.6-.8.2-.3.3.3c.1.2 1.8 3.2 2.3 3.8l.6 1c.2-1 .7-1.7 1.2-2 .6-.3 1.1-.3 1.6-.3.9.2 1.4.9 1.7 1.7l.5.6c.4 1 1 1.7 1 2 .1.1.5.1.5-.2h.6v.4l-1.3.7-1.2.8h-.2v-.3c-.2-.2-.2-.2 0-.2l.3-.3c.1-.1.3-.2.3-.5l-.8-1.3-.7-1c-.3-.7-.8-1.2-1.3-1.4-.4-.1-.8 0-1 .2-.4.3-1 .6-1 1.3 0 .2 0 .6.2.8l1.7 3c.2.2.4.4.6.2l.4-.3h.2l.2.2v.2l-1.3.7c-.6.4-1.1.7-1.4.7l-.2-.3c0-.2 0-.2.2-.2l.2-.2c.3-.1.3-.3.3-.5l-1.4-2.5-2.6-3.8c-.3-.6-.8-1-1.5-1-.5 0-1.7.7-2.3 1l-.4.2 2.2 4 2.3 4c.2.3.5.5.7.3l.7-.5c.2 0 .4 0 .4.2v.5c-.1.2-.6.2-1.8 1.2l-2 1h-.2l-.2-.2v-.2l1-.5c.3-.2.3-.5.3-.7-.2-.4-2.6-4.5-2.6-4.8l-2-3.5-.2.2c-.5.3-1.6.9-2 1.3-.4.6-.4 1.8-.4 2.4h-.4l-.8-2.8c.1-.1.1-.3.2-.3zm-4.7 10.4c1-.8 1.8-.6 2-.6l.6-1.6c.4-.2.8 0 1 0 .2.3.2.7 0 1s-.4.3-.6.3h-.2c0 .1-.3.2-.3.4l1 .7c.4.4.7 1 .7 1.6 0 .7-.3 1.5-.7 1.7-.3.3-.4.5-.6.5-.2.4-.3.9 0 1.2.5.5 1-.1 1.7-.8.9-.9 1.5-1.4 2.2-1.4.8-.1 1.3.3 1.6.6.4.4.6 1 .6 2-.1.4-.3 1.4-1.3 2.4l-.4.1c-.5.4-1.2 1-2 1-.6.2-1 .1-1.3-.3-.6-.6-.5-1.7-.2-2.4v-.2c-.6.4-1.1.4-1.4 0-.5-.5-.3-1.5 0-2-.6.2-1.8.2-2.6-.8-.8-.7-1-2.2.2-3.4zm-6.5 9.5l.4-1.5v-.2h.3l.8.4c-.2-.7-.1-1.7.3-2.2l1-1c.7-.1 1.4 0 1.7.4l3.2 2.3c.2.3.3.2.5 0l.2-.4h.2l.3.2v.4l-1 1-.8 1c0 .2-.1.2-.3 0-.2-.1-.2-.3 0-.3l.3-.3c.1-.2.1-.3-.2-.5l-1-.8-1.6-1.4c-.3-.4-.7-.6-1.3-.4-.5.1-.6.4-.8.7-.2.2-.4.7-.4 1.2 0 .6.3.8.6 1l2.3 2c.3.2.4.2.6 0l.3-.2c.2-.2.2-.2.2 0h.3v.4s-.4.2-.8 1l-.7 1h-.3v-.2c-.2 0-.2-.2 0-.2v-.4c.2-.1.3-.2 0-.4l-2.8-2.3c-.3-.2-.7-.2-1 0h-.5v-.3zm-2.1 2.4c.2-.1.2-.3.2-.3h.2c.2.3 1 .7 2 1.3l1.5 1c.4.3.8.7 1 .7.2.2.4.2.4 0l.4-.8h.2l.3.2v.2c0 .3-.5.7-.8 1.3l-.8 1.4h-.2l-.3-.2v-.2l.3-.6c.2-.1.2-.2 0-.4l-1.3-.8-1.7-1c-.4-.2-.7-.3-1.2.3h-.2v-2.1zm-1.1 2.5c.3.3.3.7.3 1-.1.2-.2.4-.4.4-.1 0-.3.2-.3.4-.2 0-.2.6 0 1 .1.3.4.3.4.3l2.8 1.6c.4.2.7.2.7 0l.4-.7.4.3-.8 1.4c-.5.8-.7 1.5-.7 1.5h-.3v-.3c-.3 0-.3-.2 0-.2v-.5c.2-.2.2-.3 0-.5l-1.6-.8-1.1-.8c-.6-.3-.8-.3-1.2 0l-.4.2h-.2v-.2l.2-1.7v-.3h.2l1 .5c-.4-.9-.6-1.8-.4-2.3.3-.3.8-.5 1-.3zm-2-4.3c.3-.5.8-.4 1-.2.2.3.6.7.2 1.3v.1c0 .2-.6.5-1 .2-.2-.4-.6-.8-.2-1.4zm-2.5 11.5c.7-1.5 2.3-1.2 3-1v.5l-1.6 3.2.7.7c1.4.6 2.7.2 3.2-1 .4-.8.2-1.6-.2-2v-.2l.2-.2h.2c.3.7 1 1.8.5 3-.4.8-1 1.6-2 1.8-.9.1-1.4 0-2.4-.3-.6-.3-1.4-1-1.8-2-.3-.9-.2-1.7.2-2.5zm-3.5 10.2c0-.3.2-.5.5-1.3s.3-1.2.3-1.4h.2l.3.3v.3c0 .1 0 .3.2.3.3.2 1.6.2 1.8.2l-.2-.1h2.5c-.4-.4-2.5-2.4-3-2.6-.4-.3-.6-.3-.8 0v.2h-.5v-.3l.5-1c.3-.6.3-1 .3-1.3h.6v.2l-.2.3v.4l2 2 2.4 2.4.2.4c0 .2-.2.2-.2.2l-3.3.3h-2.3c-.4 0-.6.1-.8.4v.3h-.5v-.2zm.4 2.8c.7-.6 1.5-.8 2.5-.6 1.7.3 3 2.2 2.7 4l-.1-.1c-.2.7-.7 1.6-1.5 2.2-.9.5-1.5.5-2.7.5-.6-.3-1.5-1-2-2-.3-.8-.3-1.6-.3-2 .2-1 .8-1.7 1.4-2zm-1 6.9c.3 0 .5.3.5.6-.1.4-.3.6-.8.8-.7.3-.7.7-.7 1l.1-.1c-.1 1 .6 1.8 2.2 2 .8.1 1.8-.2 2.2-.6.8-.4 1-1.1 1-1.6.1-.8 0-1.2-.4-1.6v-.2l.2-.2c.6.5 1 1.5 1 2.5-.1.9-.4 1.7-1.4 2.3-.7.6-1.3.6-2 .6-1.8-.1-3.4-1.5-3.2-3.5 0-1.7 1-2 1.3-2zm2.6 14.5l-2 .3c-.6 0-.8 0-1 1h-.2c-.2-.6-.6-1-1-1.6v-.3h.2l2.4-.3 1.6-.3h1.2c.4 0 .4-.2.4-.2v-1h.3c.2 0 .2.2.2.2v1.4l.3 1.8h-.8v-1h-1.6zm-4.1-7.1c.1-.4.3-.4.3-.4h1.2v.4l-.7.5c-.3 0-.7.4-.7 1s.4 1.2 1 1.2c.9.1 1-.5 1.2-1.5.4-1.1 1-1.8 2-1.8 1.2 0 2 1.1 2 2.4l-.1.4-.4 1.5c-.1 0-.3 0-.3.2h-1.5v-.4l.7-.4c.7-.4 1-.4 1-1.4 0-.5-.2-1.3-1-1.3-.6 0-1 .3-1.3 1.5-.3.9-.8 1.7-2 1.7-1 0-1.8-1-1.8-2.3 0-.7.2-1.1.4-1.3zm.8 10c1.7-.3 2.9 0 4.2.7 1.8 1.2 2.2 3.5 2.4 4.5s.3 2.1.6 2.8l.3 2.3h-.4l-.2-1c-.1-.3-.2-.5-.5-.5l-4.8.8-1.3.1-2.7.7c-.4.1-.4.3-.2.6v1.3h-.3c-.2 0-.2-.2-.2-.2 0-.3 0-.9-.3-2.3l-.4-2.4c-.4-1.7-.6-3.5.4-4.9.6-1.2 1.7-2.2 3.4-2.5zm-3.7-3.6c.4 0 1 .3 1 1 0 .4-.3 1-.7 1-.5 0-1-.3-1-1 0-.5.4-.8.7-1zm51.8-127.7c5.1 0 9.1 4.3 9.1 9.6 0 6.9-4.9 10.3-9.1 10.3-5.7 0-9.2-4.7-9.2-9.6 0-7.2 5.4-10.3 9.2-10.3zM67 223c-2.6.4-2.8.7-2.8 3.2v3.8c0 1.5 0 3 .3 4-2.7.6-6.1 1.6-9.6 1.6-9.3 0-15.4-6-15.4-14.6 0-10.1 7.9-15 16.1-15 3.6 0 6.7 1 8.1 1.2l.7 6.9-1 .4c-1.1-5.5-4.3-6.9-8.5-6.9-6.6 0-11.4 4.9-11.4 13.1 0 6.2 3.7 13.4 11.9 13.4 1.7 0 3.1-.1 4-.7.9-.6 1.4-1 1.4-3v-3.7c0-3.1-.5-3.4-4.5-3.7v-1.2h10.5l.2.1v1.1zm10.5 11.8h-9.3v-1.2c2.8-.2 3.2-.4 3.2-3.4v-20.6c0-3.1-.4-3.1-3-3.4v-1c2-.2 4.7-1 5.9-1.5v26.4c0 3 .4 3.2 3.2 3.4v1.3zm11.4.4c-5.7 0-9.2-4.7-9.2-9.6 0-7.1 5.4-10.3 9.2-10.3 5.1 0 8.9 4.3 8.9 9.6 0 6.9-5 10.3-8.9 10.3zm19.6 0c-1.7 0-3.8-.5-5.9-1.5v-24.2c0-2.7-.2-3-3-3.3v-1c2-.2 4.6-.8 5.9-1.5v13.6l3.6-1.8c.6-.4 1.2-.4 1.6-.4 4.5 0 8.4 4 8.4 9.1 0 6.4-5.1 11-10.6 11zm53.3-27.4v-1.2h10.9v1.2c-3.4.3-3.7.5-3.7 4.3v16.2c0 5.6-.9 8.5-3.5 11.1-1.5 1.3-2.8 2.1-3.8 2.5l-.5-1.2c2.3-1.2 3.5-3.4 4-5.7.5-2.2.5-4.5.5-8.1v-14.8c.1-3.9-.3-4.1-3.9-4.3zm-21.7 25.8c2.8-.2 3.2-.4 3.2-3.4v-20.6c0-3.1-.3-3.1-3-3.4v-1c2-.2 4.7-1 5.9-1.5v26.4c0 3 .4 3.2 3.2 3.4v1.2h-9.3v-1.1zm-6.4-17.2c1.5 1.4 2 3.1 2 5.3v8.1c0 2 .7 2.6 1.5 2.6.6 0 1.1-.3 1.6-.3l.2 1-3.1 2.4c-.6 0-1.5-.5-1.8-1-.7-.5-1-1-1-2-1.8 1.3-3.8 3-5.1 3-3 0-4.9-2.6-4.9-5.3 0-2.1 1.1-3.4 3.5-4.4 2.5-.8 5.4-2 6.4-2.8v-.8c0-3.2-1.4-4.9-3.7-4.9-.8 0-1.5.2-2 .7-.6.6-1 1.7-1.3 3-.2.6-.6 1-1.2 1-.8 0-1.8-1-1.8-2 0-.6.5-1.1 1.2-1.6 1.1-1 3.9-2.6 6.2-3 1.3 0 2.5.3 3.3 1z"/><path d="M196.4 268.6c-.4-.2-.7-.2-1-.2-.2.1-.6.1-1 .4-.3.7-.3 1.4-.3 2 0 .4.3 1 .5 1.4.4.3.8.3 1 .3l.2-.1c1-.1 1-1.4 1-2.4l-.4-1.4zM182.7 274.2c-.7-1.5-2-2-2.7-2-.4.2-.8.4-1 1-.4.7-.4 1.4 0 2.4.2 1 .5 1.5 1.2 2 .5.4 1 .5 1.7.2 1.1-.4 1.3-1.9.8-3.6zM162.6 292.5c-.5-.6-1.5-.6-2.5.4l-1 1c-.2.5-.5 1.4.2 2 .2.3.7.5 1 .3.6 0 1.1-.3 1.8-1v-.1c.5-.6 1.5-1.9.5-2.6zM139.5 348.7c-.8-.5-2.2-.8-3.6-.5-1 .2-2.3 1-3 1.8-.7 1-1 2.4-.7 4 .1.3.1 1 .4 1.3.2.2.6.2.6.2l3-.5.9-.2 3.7-.7c.2 0 .5-.2.7-.5.3-.3.3-.9.3-1.7-.4-1.6-1.4-2.7-2.3-3.2zM204 464.7c.2.9 1.3 3.8 2.5 6.1v-11.2c-1.8 1.5-3.1 4.1-2.5 5.1zM140.6 310c-.2.5-.2 1.3.8 2l1-2.2v-.4c-.4-.2-1.3-.4-1.8.6zM109.1 217.6c-1.3 0-2.8.5-3.6 1l-.1 11.1.2 1.6c.4.9 1.7 2.4 4 2.4 3.8 0 5.9-3.2 5.9-8.1 0-5.1-3-8-6.4-8zM157.4 288.5c-.5-.5-.8-.8-1.2-.8s-.6.2-.8.4c-.2.2-.5.5-.5 1 0 .7.4 1.3 1 1.7.2.4.6.7 1 .7s.7-.1 1-.4c.8-.6.1-1.9-.5-2.6zM88.4 216.8c-2.7 0-4.9 2.7-4.9 7.6 0 5.4 2.4 9.4 5.9 9.4 2.7 0 4.9-2 4.9-7.9 0-5-2-9.1-5.9-9.1zM176.7 396c-.1.2-3.1 3.3-3.3 3.7l3.1 1.5.6-4.9v-.3h-.4zM139.3 322.9c-1.6-.4-2.8.6-3 1.4-.1.5 0 .8.3 1.3.5.7 1 1 2.3 1.2.7.2 1.3.2 2 0 .6-.3 1-.6 1-1.3h.1c.2-1.2-1.2-2.2-2.7-2.6zM198.7 276.3c0-.8-.8-1.3-2.3-1l-1.4.3c-.4.2-1 .8-1 1.6 0 .4.4.8.7 1 .6.2 1.2.2 2.2.2v-.1c.6-.1 2.1-.8 1.8-2zM187.5 310.8v-.6h-2l-1.4.6-.3.7 1 .3h3v-1h-.3zM188.4 310.6v1.2l.9-.2-.9-1zM185 312.2l-1 1.2-.3 1.2 1 .6 2-3H185zM178 298.7l-.2.5h-1v1h2.3l.5-.7v-.8H178zM182.4 306.6l-1.3.5.8 1.7 1.2-.4.3-1.6-1-.2zM187.4 312.2v1.6l1-.2.6-.4v-1h-1.6zM189.7 313.2h-.2v1l.4.6h1.5v-1l-1.7-.6zM179.4 301.4l-1 .2-1.7.5.4.6 2.3-.3s.2-1 0-1zM187.8 314.3l-.2.5h-.7l-.2.9h1.5l.7-.5v-1l-1.1.1zM190.4 312l-.4.5.6.5.6-.5-.8-.5zM185 297.1h-2.8v1h3.2l-.4-1zM162.6 313.3l2-2.4v-1l-2 3.4zM205.7 154.3c.2-.3.5-.7.8-1v-.9c-.3.6-.6 1.3-.8 1.9zM203.9 153c.8-1.9 1.6-3.6 2.6-5.4v-9.1c-1.6 4.8-2.7 9.6-2.6 14.5z"/><path d="M206.1 300h-2l-.5 1.5-4.7-1 3.6-2-1.3-1.2-3.3.3-.3.5-.8 1h-1.4v.6l.5.2v.2l-1.3.2v.8h-1.2l-.3-1.4-2 .6-4.2 2.6.5 1.8 1.2.8 2.4.2v3l1-.2 1-2.2 2.5-.8v-3.4l1.4-1.2 3.5 1-.3 2.3h1l2.6-1.4v3l1.8 1.2v1.8l-1.8.6.2.5 2 1v1.2h-.6l-2.7-.7-.2-1 1-.5v-.9l-1-.2-.2.7-1.6.3h-.5l-.4-.8-.6-.2h-1l-.5.4v.8l1 .3.8.2-1 1-.2-.5-1-.2-2 2.2h.2l-3 2-3 3-.2 1.4-3 2-1.5 1.5.2 3-2-1v-1.7h-5.5l-3 1.5-1.4 2.4-.5 1.8.8 2 2.3.4 3.7-2.6.2 1.3-1 2.2 2.8.4.3 4.4 3.8.6 2.5-2.7 2.8.6 1 1.5 3-.2.2-.8 1.4.7 2 3h3l1 2 .2 2.4 3.3 1.5h.8v-46l-.5.4zm-7.8 13.8h-1v-.8l.4-.5.6.5v.8zm3.2-1.3h-.6l-.2.7-.4.4h-1v-.4h-.2v-.7h1.4l.2-.8.5.1h.6l-.3.7z"/><path d="M205.4 359.5l-1 1.6.7 3-3 4-1 1.8-2.8 1.4-2 .3v.8l1.2.4v1l-1.2 1 .7 1h1.4v1.2l-.4 1v1l2 1.8-.2.8h-3L194 379l-2.2-4 .3-3.8-1.7-2.2.7-4-1-.3v-8.5s-2.8-2-3-2l-1.3-.4-.3-1.6-3.6-4.6.5-1.6v-2.8l2.6-1.8-.3-3-3.6-.4-3-3.3-2-.6-1.3-.2.3-1.2-1.7-.3v.6l-4.2-1-1.7-2.6.7-1.2-2.7-4-.5-3h-1l.4 2.7 1.8 3-.2 1.2-1.5-.4-2-3.3v-3.8l-2-1v-2.8c-2.4 5.8-3.8 12.4-3.8 19.1 0 27 21.3 48.8 47.5 48.8.6 0 1.2 0 1.8-.1v-25.2h-.6v.1zM160.9 315.4v.1l1.4-1.6.3-.6-1.7 2.1zM204.5 287c-10.4 0-20 3.4-27.9 9.3h2.5l1 .5 2.2.3.7-.7-.2-.7h-2.6l2.8-2.2h2.7l1.4 2h2l1.3-1.3 1 .6-1.8 1.8h-2.2v1.7h3l.3-1h2l.2-1.2-1.2-.2.4-1 1-.2h3.2l-1.8 1.7.3 1.2 1.7.4v-2.2l1.8-1 3-.4 4.5 2v1.7l1 .3v-11.3c-1 0-1.6-.1-2.3-.1zM211.6 489.5v.3l.2-.7-.2.4z"/><path d="M248.8 318.1h-2.5l-1.3-1.5-.2-2.2-1.3.6-.6 3-2-2v-2l-1.8-1.5-.6-.7h-2l.6 2 2.5 1.4.4.4-.4.3v1.5l-1.2.4h-1l-.7-1h1.7l.5-.6-3.8-2.6-.4-1-1.5 1.5-1.6-.4-2.4 3.2-.5 1.3H225l-1.3-.5-.4-2.7.5-1.2 2.2-.5 2.5.6.3-1.4-1-.3.3-2.2 2.4-.4 1.7-2.7 1.8-.3 1.7.2h.7l-.4-2.4-2 .8-.7-1.7-1.2-.2v-1.2l1-1 2-1 .6-1c-7.8-7.1-17.9-11.6-29-12.2V345h3.2l1 2 2 .5-.5 1.7-1.1 1.5c1.4-.9 2.3-2.5 2.3-4.3 0-2.8-2.1-4.9-4.8-4.9h-.4v-.5h.4c3 0 5.4 2.5 5.4 5.6h-.1c0 2.6-1.5 4.7-3.8 5.4l-.2 1.7h.6v1h-.7l-.4 3.2-1.8 1.6h-1.2v25.2c14-.7 26.3-7.6 34.7-18h-1.5v-3.3l-2-2.5v-4l-1.5-1.4v-1.6l1.8-3.5-3.3-6.1.3-4-3-.3-1.2-1.2h-2l-1 1h-3.7v.4h-2L218 335v-4.2l1-.2.3-1.6h-1.2l-.4-1.6 5.2-4v-2.7l2.6-1.5 1.2.2h2l1.6-1 5.3-.4v2.8l4.2 1 1 .6h.7v-1.5l2.5-.2 2.3 1.8h3.8l.1-.8c-.4-1.1-.9-2.4-1.4-3.6zm-22.3-13.4l.4-.8 1.7-.3.3 2 1 1.5.6.7 1 .4-1 1-1.8.2h-1.5l.3-1.8h1v-1l-1.2-.6-.8-.6v-.7zm-2.5 2.9l1-1.6 1.2-.2 1 .4-.2 1-2 1.4h-1v-1z"/><path d="M247.1 314.1l-.3.3-.1 2.1h1.4c-.3-.9-.7-1.6-1-2.4zM336.7 427.7c-.1-.5-.4-.8-.6-.8-26.9-12.3-101 5.4-117.8 34.9-.5.5-.5 1.3-.5 2-.2 1.6 2.4 7.4 0 8.2-1 .4-1.6-3.1-2-3.3-2.6-2.6-2.4 14.6-3.8 19.4 20.8-41.6 40.9-30.1 85.5-35 7.4-.7 15.5-1.2 22.5-4.9 7.2-4.1 18-16.9 16.7-20.5zm-39.4 15.8c-2-.6 1-4.3-4.4-3.3-.4.8-2.2 2.2-3 2.8-2.6 1.2-5.5 1.2-5.9.2-7.1-4.6-6.1 1.8-8.4 2.8h-.6c-.2 0-.4 0-.7-.2-13.8-4.9-24.1 2-27.2 1 1.2-4.7 14.6-6.7 19-9.3 9.9-5.7 1.7-2.9 14.8-1.2 6.2-8.9 5.4-3 11.2-1 3.6 1.8 3.6-6.9 7.5-4l-.2-.2c6.3 4.6 19.6 5.2 26.5 2 9.3-4.4-19 13.2-28.6 10.4zM207.6 217.5l-.7-.1v14.8c.9-.4 1.7-.9 2.5-1.8v-9.9c-.1-2.6-.5-2.8-1.8-3zM239.1 302.8v2.4l-1.9 1 .2.8h3.2l1-1.4c-.8-1-1.5-2-2.5-2.8zM250.7 325.1l.3.8v-.9l-.3.1zM245.5 283.2c-.6-.4-1.2-.4-2.2.3l1.8 1.5h.4c.3-.3.7-1.2 0-1.8z"/><path d="M379.8 122.3c-7.2-1-14.4-1-22.2-2.5-56.9-10.3-111.9-39-148.8-85.4l-2-2.7v.3l.1.1V98c.3 3.8.6 7.7.9 11.6-.3-2.9-.6-5.7-.9-8.6v30.8c1-2.7 2.1-5.3 3.2-7.9 1.8-4.9 3.6-10.4 2.8-15.8-.3-1-1.5-1.7-1.5-3l-.4.4c.5-1 1.7-.8 2.2 0 1.4 2 1.6 4.8 1.5 7.2-.4 5.9-2.8 11.9-4.9 17.4-1 2.4-1.9 4.8-2.8 7.2v9.5c1.1-1.9 2.2-3.8 3.4-5.8 4-6.3 8.1-12.4 12.1-18.8 2.6-4.3 4.9-8.7 6.2-13.6.3-.8 0-2.2 1.2-2.5 1-.2 1.4 1 1 1.8-1.3 6.9-4.9 13.1-8.9 19-4.3 6.7-8.7 13.4-12.7 20.3-.8 1.4-1.6 2.8-2.3 4.2v1.2c1.7-2.2 3.7-4.4 5.7-6.4 5.6-5.6 11.6-10.9 17.2-16.1 4.6-4.4 9.1-8.9 11.9-14.8.5-.8 2-.5 2 .5-.3 1.5-1.3 3-2.3 4.4-3.8 5.7-8.9 10.2-13.9 14.8-5.2 4.8-10.5 9.5-15.4 14.6-2 2-4 4.3-5.2 6.9 3.4-3.7 7.7-5.9 11.9-8.4 7.1-4 14.4-7.2 21.5-11.1 4.3-2.3 8.5-4.9 11.9-8.4.8-.7 1.3-2 2.5-1.7.7.4.5 1.6 0 2-3.8 4.2-8.4 7.2-13.2 9.9-7.5 4-15.3 7.6-22.8 11.9-4 2.2-7.9 4.3-10.9 7.6 2.8-2 5.9-3.2 8.9-4 8.2-2.3 16.5-3.8 24.7-5.4 6.9-1.4 14.2-3 20.1-6.9.6-.5 1.3-.3 1.7.4 0 1-1 1.4-1.6 2-4.6 2.8-9.9 4.4-15.1 5.6-8.9 2-18.1 3.4-27 5.7-3.6 1-7.2 2-10.2 4.3 3.2-1.4 6.5-1.8 9.9-1.8 10.3 0 20.6 1.2 30.9 1.6 4.8.2 9.5 0 14.2-1 1-.3 2-1 3-.6.8.6 0 1.8-.8 2-9.3 3-19.3 1.4-28.7 1 5.9 1 11.7 2.2 17.8 3 4 .2 8.3.7 12.4-.2l5.1 6.9h-2.8l-32.2-3c-5.5-.4-11.3-1-17-1-3.5 0-7.1.3-10.1 2 3-1.5 6.5-1.7 9.8-1.8 5.6 0 11.4.7 17.1 1.2l32.3 3c1.4 0 2.8 0 4.2.2v3.8c-9.9-.5-19.6-1.8-29.4-2.5-7.3-.7-14.8-1.5-22.4-1.8-3.7 0-7.6 0-10.9 2-1.5 1-1 3.3-2.8 3.8h-2v39.3l3-.2c1.2-.2 2.2-.3 2.7-.5V230c0 2.2.4 2.4 2 2.6l1.2.2.1-.2v1l-3.2.6-2.8 1-.3-.3v-3.2c-.8.7-1.6 1.3-2.7 2v16.9h126.8v.8H206.9v17.7c.1.4.1.8.1 1.2v3c-.1.2.4.2.4.2h.3v.7h-.8v8.9c12.7.5 24.1 5.5 32.9 13.8.9.7 1.6 1.5 2.3 2.3.3.3.7.6.7 1 4.2 4.6 7.5 9.7 9.9 15.4.2.3.2.7.2 1 1.8 4.7 3 9.4 3.5 14.6l.4 4.6.4-.1v.6c0 3.2-.4 6.3-1 9.3-.1 1-.3 2.2-.6 3.2-1 4.1-2.4 8-4.4 11.7-8.2 16.7-24.9 28.2-44.2 28.9V410h.1c.4 0 .8.5.8 1 .2.6-.3.8-.8.8v.2h-.1v36.7c.4.2.9.4 1.4.5v-.4c4 .4 6.9-5 10.2-8.7.8-1 1.4-1.6 2.4-2 .6.9-9.4 13.6-8.9 16.5.3 1.6 1 3.3 1.7 4.3.5.8 1.1 1.6 1.8 2.3 18.5-32.7 74.2-48.3 106.6-43.6 3 .4 15.3 5.3 15.8 4.6l.4.2c-1.2-10.5-7.2-18-14.5-21.4-10.6-4.4-23.7-3-29.2-2-21.8 4.2-33.3 10.5-20.8 4.8 3-1.4 15.8-6.9 24.7-8.9 1-.3 39.6-8.7 45.5 29.7 2.3 1.2 13.7 6.4 16.3 8.7.4.3 1.4.9 1.4 1.3-11.7-3.8-16.6-5.6-18.1-5.9-.1-.1-.2-.1-.2-.1.1.1.2.3 0 .8-8 20.6-31.1 33.6-52.1 34.1-15.3.4-46-5.9-57.9 5.3-5.2 5.1-9.5 9.8-14.5 15.2-4.1 4.2-7.4 6.9-7.4 5.9-.8-3.5-1.7-5.2-2.7-5.4v-10.7c-.2 0-.3-.1-.5-.2v10.9h.4-.4c-.6.1-1.1.7-1.6 1.7V522h-.2c4.4.2 7.5-1.2 11.5-2.6 3-1 5.7-2.7 8.5-4 9.5-4.7 19.8-8.9 29.7-12.9 26.7-11.1 54-21.6 80.7-33.3 7.4-3.2 15.5-6.6 22.5-10.5l.8-.5c21.3-12.1 20.3-29.7 20.3-46.5 0-.1 1.7-278.8-.8-289.4zM260.6 295c.2-.3.9-.3 1.2.4.3.3 0 .8-.2 1-.4.2-.9.3-1.2-.2-.3-.3-.3-.9.2-1.2zm-47.4-25.6l-2-.2c-.1.7-.3 1.4-.3 2.2v1.5c-.2 1.3.3 1.3.6 1.3.3.2.8.2 1 0 .2 0 .2 0 .2.2v.3c-.2.2-.9.6-1.7.4-.8-.1-1.3-.9-1.3-1.6l.3-2v-.4c0-.2.3-1.2.3-2h-1c-.2 0-.2-.1-.2-.3 0-.1.2-.1.2-.3.5-.2 1.8-1.2 2-1.7 0-.2.2-.2.2-.2v1.8l2 .4-.3.6zm4.9.4v1.2h-.4l-.2-.7c-.2-.5-.4-.8-1-1-.6 0-1.2.2-1.4 1-.1.9.5 1.2 1.2 1.5 1 .6 1.6 1.3 1.4 2.3-.3 1.2-1.3 1.8-2.7 1.6l.3-.2c-.6-.1-1.3-.6-1.6-.6v-1.8h.5l.2 1c.2.4.4 1 1.2 1 .5.2 1.1-.1 1.3-.8.1-.6-.2-1.1-1.2-1.6-.8-.4-1.5-1.1-1.5-2.4.4-1 1.4-1.6 2.4-1.4.8.2 1.1.4 1.5.6v.3zm8.1 3.5l-1 3.7c-.2.5 0 .7.4.7l.6.2v.7h-.3l-2-.7c-1.2-.6-1.8-.6-2-.6v-.3l.3-.4.8.3c.2.1.5.1.8-.4.2 0 1.2-3.2 1.2-4l.6-1 1-3.3c.1-.3 0-.5-.6-.7l-.7-.3c-.3 0-.3-.2-.3-.2l.3-.3 2.3.7 2 .8-.3.4-.7-.2c-.3-.1-.7 0-.7.2l-1.2 3.6-.5 1.1zm8.7 4.3l-1.6 3.4c-.2.1-.2.4 0 .4l.4.2c.2.1.2.1.2.4l-.2.3-1.3-.7c-.7-.5-1.2-.5-1.2-.5-.2-.1-.2-.1 0-.3v-.2h.3l.3.2c.2.1.4.1.4-.2.2-.2.4-.8.8-1.2l.8-1.8c.3-.4.5-.9.3-1.4s-.5-.6-1-.8c-.3 0-.7-.3-1.3 0-.4.2-.6.5-.8.8l-1.4 2.8c-.2.4-.2.5 0 .7l.5.2v.3l-.2.3-1.2-.6-1.3-.6v-.1l.2-.2s.2-.2.2 0h.2c.2.2.5.2.5 0l1.6-3.4c.1-.3.1-.7-.2-1v-.2c-.2-.1 0-.3 0-.3h1.9l-.3 1c.7-.3 1.7-.3 2.4 0 .4.1.7.5 1 .8.3.5.3 1.4 0 1.7zm4.7 4.4l-2.8 2c-.2.2-.3.2-.5.2v-.5l.6-3.4.5-2c0-.6 0-.7-.2-1h-.2v-.3l.2-.2h.3l1 .7 1 .8c.2 0 .2.2 0 .2v.3h-.2l-.3-.2c-.1-.1-.4-.1-.4.2-.2.2-.5 1.5-.5 1.8v-.2l-.5 2.6 3.3-2.3c.3-.5.4-.7 0-1h-.2v-.2l.2-.3h.3l.8.7c.6.3 1 .4 1 .6.2 0 .2.2 0 .2v.3h-.2l-.2-.3h-.6l-2.4 1.3zm2.3 6.4c-.6-.6-1.2-1.4-1.2-2.4s.3-1.5 1-2.3c.2-.5 1-1.3 2.2-1.5.9-.1 1.5.2 2.2.7 1.3 1.2.7 2.7.3 3.2-.1.2-.2 0-.5 0l-2.9-2.3-.5.6c-.8 1.2-.8 2.7.2 3.4.7.6 1.5.6 2 .4h.2v.4c-.6.3-2 .6-3-.2zm8.1 6.4l-.3.3-1-1-1-1c-.2-.2-.2-.2 0-.2v-.2h.3l.3.3c.1.2.3.2.3 0l1-1 1.3-1.5c.4-.5.7-.8.7-1.3 0-.4-.3-.7-.5-1-.4-.1-.7-.3-1.4-.3l-1 .5-2.3 2.4c-.2.3-.2.3 0 .6l.2.3c.2.1.2.1 0 .3l-.3.4-1-1-1-1v-.3h.2c.1-.2.3-.2.3 0l.2.3c.2.2.3.2.5 0l2.4-2.7c.2-.2.2-.7.2-1v-.5h.2l1.4.5h.2v.3l-.6.8h.2c.7-.1 1.7.1 2.3.6l.8 1.2c.1.6-.2 1.4-.4 1.6l-2.6 2.5c-.3.1-.2.4 0 .4l.4.3v.4zm1.6 3.3c-.6-.6-.6-1.7 0-2 .4-.4 1.4-1.4 1.6-1.4l.3-.2c.1-.4.9-.9 1.4-1.4l-.6-.8c.1-.2.1-.2.4 0 .4 0 2.1.2 2.6 0h.2v.3l-1.2 1 1.3 1.5v.3l-.5.2h-.3l-1.3-1.5-1.6 1.4-1.1.9c-.8.7-.6 1.2-.6 1.5l1 .7v.3h-.2c-.4 0-1-.1-1.4-.8zm3.7 4.6h-.6c0-.1-.5-.7-.7-1.4-.6-.7-1-1.1-1-1.4l.3-.2h.3l.4.5c.1.3.1.3.3 0l1.2-.7 1.9-1.1c.4-.3.6-.6.2-1.3v-.3h.2c.4.4 1 .7 1.7 1v.3l-2 1.4-1.4 1c-.4.4-.8.8-1 .8-.2.2-.2.3-.2.5l.4.5v.4zm.8 1.9l-.6-1.2c-.2 0 0-.2 0-.2h.2c.1-.2.3-.2.3 0l.2.5c.1 0 .1.2.5 0l3-1.8c.4-.2.4-.6.4-1v-.3h.4l1.3.7.3.2s0 .2-.3.2l-.7.5c.7.1 1.6.6 2 1.3l.3 1.3c0 .5-.5 1.3-.7 1.5l-3.4 2v.4l.3.4v.3h-.6l-.7-1.4-.7-1c-.1-.2 0-.2.2-.2.2-.2.2 0 .2 0l.3.3c.1.2.1.2.4.2l1-.7 1.7-1c.6-.2 1-.5 1-1.2 0-.3-.1-.7-.3-1-.2-.2-.4-.6-1.2-.8l-1 .2-2.7 1.6c-.3.3-.3.4-.3.7l.2.3v.2l-.3.2h-.2l-.5-1.2zm-9.2 78.1c.5-.4 1-.2 1.3 0 .3.3.4.8 0 1.4h.1l-.1.1v-.1c-.4 0-.9.3-1.3 0-.2-.4-.3-.9 0-1.4zm-26.7 27.4l-2 .4c-1.2.3-1.8.3-2.2.3v-.6h.2c.4 0 .2-.4.2-.4-.2-.2-3.6-3.5-3.8-3.5-.3-.2-.5-.2-.8 0h-.4l.3 1 .6 3.4c.1.2.2.2.5.2h.7v.6l-1.7.2-2 .4v-.7l.7-.2c.3 0 .3-.1.3-.4l-1-4.9-.3-1.1-.7-3.5c0-.2-.1-.2-.6-.2h-.6v-.6l1.8-.3 1.6-.2h.5v.5l-.7.2c-.3 0-.3.2-.3.5 0 .2.4 2.7.7 3.5v.8l.3-.2h.7l2.5-4.9c.1-.4 0-.4-.2-.4h-.4v-.2c0-.2 0-.2.2-.2l1.5-.3 1.3-.2v.6l-.3.2-.6.3c-.7.7-2.5 4-3 4.9.2.1 4.8 4.4 5.1 4.4.2.2.7.2 1 .2h.8l.1.4zm1.7-.6c-.4.2-1.1 0-1.4-.8 0-.2 0-.8 1-1 .3-.2 1 .2 1 .8.1.5-.2 1-.6 1zm8.9 1.2h-.7l-5.9-14.8v-.2l.6-.3.3.2 5.7 14.8v.3zm8.8-8.7c-.1 0-.8.3-1.8 1-1.2.8-1.8 1.2-2.2 1.2l-.2-.5.7-.4c.4-.2.4-.4.4-.8l-2.2-4-.1-.8c-.3-.3-2-2.8-2-3-.2-.3-.4-.4-1 0l-.7.4h-.3v-.5c0-.3.8-.5 2-1.3l2-1.2.2.3v.2l-.7.4c-.3.2-.3.4-.3.7l1.8 3.5.6 1c0 .1 2 3.2 2 3.5.3.3.5.3 1 0l.5-.3h.3v.4c.2.2 0 .2 0 .2zm7.3-5.1l-1.4.6-1 1h-.2l-.2-.3v-.3l.3-.2c.2-.1.2-.2.2-.6-.4-.2-.6-.7-1-1l-1-1.6c-.4-.6-.7-1-1.4-1-.4 0-.7.1-1 .4-.2.2-.7.6-.7 1.4 0 .4.1.7.5 1l1.8 2.6c.3.5.3.5.6.3l.3-.4h.4v.5c-.3 0-.5.3-1.3.8l-1 .8h-.3v-.4l.3-.2c.2-.2.2-.2.2-.5l-2.2-3c-.2-.5-.6-.5-1-.5h-.2c-.2.2-.2 0-.2 0v-.2l.7-1.3v-.2h.3l.6.8h.2c0-.9.3-1.9 1-2.3.3-.2.8-.5 1.3-.5s1.3.4 1.5.7l2.6 3.3c.2.2.3 0 .5 0l.4-.3h.2l.2.3v.3zm5.6-5.7l-.8 1.6c-.1.2-.3.2-.3.2l-.6-.4c-.2.8-.6 1.7-1.2 2.3-.4.3-.8.7-1.8.7-1.1-.1-1.6-.5-2.3-1.5-.7-.8-1-1.8-1-2.8.2-1 .5-1.7 1.2-2.3l1.2-1-2.2-2.4c-.3-.4-.6-.5-1.3 0h-.3v-.4l1-1.5.3-.2c.1-.1.3 0 .3.2l3.3 4 2.3 2.6c.3.5.8 1 1 1 .3 0 .7-.3.7-.3.3 0 .3-.2.3 0h.2v.2zm3.2-2.8c-.2 0-.7.5-1 1-.7.7-1.2 1.2-1.2 1.4h-.2l-.2-.2c-.2-.3 0-.3 0-.3l.4-.4c.2-.2.2-.3 0-.5l-1-1-1.7-1.8c-.3-.3-.6-.5-1.3 0h-.3v-.2c.3-.5.5-1.2.5-2h.2l2 1.8 1.2 1.3 1 1h.5l.6-.6h.2l.3.2v.3zm3.8-3.9c-.4.4-1 .4-1.6 0 .1.7 0 1.3-.2 2-.2.3-.5.5-.5.8-.4.3-.9.5-1.7-.2-.4-.4-.8-1.1-.4-2.4l.6-2-1-.7c-.2-.1-.5-.4-.8-.4-.2-.1-.5.2-.8.5-.2.2-.5.7-.5 1s.3.3.7.5c.3.3.4.8 0 1.3-.2.2-.4.2-.7 0-.4-.4-.4-1.1-.4-1.8.2-1 .4-1.4 1-2 .4-.6.8-.8 1-.8.5 0 .8.2 1 .5l2 1.6.6.7c.7.5 1 .7 1.2.5.3-.2.3-.6.3-.6v-.2h.2c.2-.1.2 0 .2.2.1.3.3.8-.2 1.5zm2.2-73.2c0-.3-.6-.5-1-.5-.5.3-.2 1 .3 2 .5 1.1.8 1.8.5 2.6 0 .9-.6 1.2-1 1.2-.5.4-1.3.4-2 0-.5-.2-1.2-.9-1.8-2.2l.1.1c-.2-.6-.5-1.4-.5-2.4.1-.6.4-1 .8-1.2.8-.3 1.7.2 2.4.7-.2-.6.1-1.2.6-1.4.5-.3 1.4.3 1.7.7 0-.7.3-1.8 1.5-2.3.8-.5 2.3-.2 3 1.5.5 1 0 1.8 0 2l1.2 1c.2.6 0 1-.3 1-.3.2-.6.1-.8-.2v-1l-.2-.5-1 .7c-.5.4-1.1.4-1.8.2-.5-.3-1.1-.8-1.3-1.3l-.4-.7zm7.2 48.1c-.5 1.7-2.2 1.8-2.7 1.5-.2 0-.2-.2-.2-.4l1.1-3.9-.8-.3c-1.4-.4-2.7.2-3 1.4-.3.9.1 1.7.4 2.2v.2h-.2c-.5-.5-1.3-1.6-1-2.8.3-1 .7-1.8 1.7-2 .9-.4 1.5-.4 2.5 0 .5.2 1.4.6 2 1.6.5.9.4 1.7.2 2.5zm1.6-6.2l-1.1-.3-.2.2c.7.5 1.2 1.3 1 2-.1.5-.5.7-.8.7-.5-.2-.7-.6-.7-1 0-.2.1-.4.3-.4 0-.1.2-.2.2-.5.1-.2 0-.6-.4-1l-.5-.2-3-.7c-.4-.1-.7 0-.7.2l-.2.8h-.4c-.2 0-.2-.2-.2-.2l.4-1.6.4-1.7h.3v.7c-.1.2 0 .4.2.4.5.1 1 .4 1.8.4l1.4.7c.7.2.9.1 1.3-.2v-.3c.2 0 .2-.2.2-.2l.2.2.5 1.7v.3zm1.4-11l-.2 1.3v.6h-.2c-.2 0-.8-.2-1.8-.2l-1-.2c-.6 0-1.5-.3-2.2 0-.7.4-.7.9-.7 1.2-.1.4.3 1.1.5 1.4.1.2.3.2.3.2l3.6.4c.4.1.6-.2.6-.5 0-.2 0-.2.2-.2h.2c.2 0 .2 0 0 .3v1.9l-.2.2-2-.3-1-.6c-.8-.2-1.5-.2-1.8-.2-.5 0-.5.1-.5.3l-.2.7h-.3l-.4-1.7v-.3l.2-.2h1c-.6-.5-1-1.4-1-2.2.2-.4.3-.9 1-1.4.8-.4 1.3-.4 2.8-.2l2 .3c.3 0 .5-.2.7-.5v-.3h.4v.2zm-.3-12.3v.5c0 .1 0 .3-.2.3-.1-.2-.8 0-1.8 0l-1 .2c-.6 0-1.6 0-2.3.5-.5.3-.5.9-.5 1.3.2.3.5 1 1 1.3h.3l3.7-.3c.3-.1.5-.3.5-.8v-.3h.3v.2l.2 1.4v.6h-2.3l-.9.2h-1.8c-.4.1-.4.4-.4.4v.7h-.3l-.8-1.6v-.4h.2l1-.3c-.7-.4-1.3-1.2-1.3-2 0-.5 0-.9.6-1.5.8-.6 1.2-.6 2.8-.8l1.8-.2c.4 0 .6-.3.6-.5v-.4h.4v.2l.2 1.3zm.3 9.5v2s-.3.2-.3 0h-.5c-.2 0-.2 0-.2-.3v-2h-2l-.1-.1h-1.4c-1 0-1.2.7-1.2 1v.8c.2.1.2.3 0 .3h-.2c-.1-.2-.4-.7-.4-1.7 0-.8.7-1.4 1.3-1.4h2.5l1.8.2v-1c0-.1.1-.3.3-.3.2 0 .2.1.2.3.2.4 1.3 1.6 1.8 1.8.2 0 .2.2.2.4h-1.8zm.7-11.9h-.2v-.4l1.2-1.3c.2-.4.4-.8.4-1.2l-.6-3.2c-.2 0-3 .6-4 1h-.8l.6 2c.2.3.4.6.7.6h1v.4l-1.6.4-1.5.3h-.2v-.4l.8-.3c.3-.2.5-.4.5-.7l-.4-2h-.5l-3.2.8c-.3.1-.3.2-.3.7l.2.7c0 .2 0 .2-.2.2h-.5l-.4-2-.4-2v-.1h.5l.2.7c.1.4.1.4.5.4l4.7-1 .7-.1 2.8-.8c.2 0 .4-.3.2-.7v-.8c-.2-.2 0-.2 0-.2h.6v.5l.3 1.6c0 .3 1.2 5.4 1.4 5.7l-2.5 1.2zM253.5 475c-9.8 2.1-24.5 12.8-27.3 15.1-.1.1-.1.2-.2.3-.5.3-.4.2.2-.3 10.5-16 24.3-24.6 44-22 25.2 2.2-8.6 5.2-16.7 6.9zm-23.7-255.7c-.4.2-.7.2-1 0-.5-.7-1.1-1-1.8-1-1.2 0-2.5 1.5-3.5 4v7.9c0 3 .2 3.2 3.5 3.4v1.2h-9.5v-1.2c2.7-.2 3-.4 3-3.4v-8.9c0-3-.2-3.2-2.6-3.4v-1c2-.4 3.8-1 5.7-2v4.5c1.3-2 3.2-4.2 5-4.2 1.5 0 2.5 1 2.5 2 .1.9-.3 1.6-1.3 2.1zm24.2 15.5v-.4h-8.7v-1c2.7-.2 3-.6 3-3.6v-7c0-3-1-5.1-4-5.1-1.8 0-3.6 1.3-4.9 2.3v10.3c0 3 .3 3.2 3 3.4v1.2h-9.1v-1.2c3-.4 3.2-.4 3.2-3.4v-8.9c0-2.9-.3-3-2.7-3.4v-1c2.1-.4 4-1 5.6-2v3.5l3-2c1.2-.8 2.2-1.3 3.5-1.3 3.4 0 5.5 2.5 5.5 6.6v8.4c0 3 .1 3.2 2.7 3.4v.8l-.1.4zm15.9.7c-.7 0-1.6-.5-2-1-.5-.5-.8-1-1-2-1.8 1.3-3.8 3-5.2 3-2.8 0-4.9-2.6-4.9-5.3 0-2.1 1.1-3.4 3.4-4.4 2.5-.8 5.6-2 6.4-2.8v-.8c0-3.2-1.5-4.9-3.7-4.9-.8 0-1.5.2-2 .7-.5.6-1 1.7-1.2 3-.2.6-.7 1-1.2 1-.7 0-1.7-1-1.7-2 0-.6.5-1.1 1.3-1.6 1.3-1 3.9-2.6 6.2-3 1.2 0 2.4.3 3.4 1 1.5 1.4 1.8 3.1 1.8 5.3v8.1c0 2 .8 2.6 1.5 2.6s1.2-.3 1.7-.3l.3 1-3.1 2.4zm13.5-.7h-9.1v-1.2c2.6-.2 3-.4 3-3.4v-20.6c0-3.1-.3-3.1-3-3.4v-1c2-.2 4.7-1 5.9-1.5v26.4c0 3 .4 3.2 3.2 3.4v1.3zm8.1.4c-2.3 0-4-.8-4.9-1.5-.3-.6-.7-3.6-.7-4.9l1-.2c.8 2.9 2.7 5.2 5.3 5.2 1.5 0 3-1 3-3s-1.3-3-3.3-4c-2.7-1.3-5.4-2.8-5.4-5.9 0-3.1 2.6-5.5 6.3-5.5 1.7 0 2.9.4 3.7.7.4.9.8 3.5 1 4.5l-1 .3c-.8-2.6-2.4-4.3-4.4-4.3-1.7 0-2.7 1.3-2.7 3 0 2 1.8 3.1 3.6 3.8 3.3 1.3 5.4 3 5.4 5.9 0 3.9-3.6 5.9-6.9 5.9zm30.5-27.4c-3.6.3-4 .5-4 4.3v17.3c0 3.8.5 4 4 4.3v1.2l-11.1-.1v-1.2c3.6-.3 4-.5 4-4.3V212c0-3.7-.4-3.9-3.8-4.2v-1.2H322v1.2zm22.9 26.6h-8.6v-1c2.6-.2 2.8-.6 2.8-3.6v-7c0-3-.8-5.1-3.8-5.1-2 0-3.7 1.3-4.9 2.3v10.3c0 3 .2 3.2 2.7 3.4v1.2h-8.9v-1.2c3-.4 3.2-.4 3.2-3.4v-8.9c0-2.9-.3-3-2.7-3.4v-1c2.1-.4 4-1 5.7-2v3.5l2.8-2c1.3-.8 2.4-1.3 3.7-1.3 3.3 0 5.4 2.5 5.4 6.6v8.4c0 3 .2 3.2 2.7 3.4v.8h-.1zm10.8.8c-5.2 0-8.4-4.4-8.4-8.9 0-3.4 1.4-6.2 4.4-8.5 2.3-1.7 4.7-2.5 6.2-2.5 1.8 0 3.2.6 3.8 1.2.7.6.7.9.7 1.3 0 .8-.9 1.8-1.4 1.8-.2 0-.4 0-.7-.5-1.4-1.2-2.8-1.7-4.4-1.7-3 0-5.4 2.5-5.4 7.1 0 5.9 4.1 7.9 6.4 7.9 1.9 0 3.4-.4 5.3-2.4l.7.8c-1.7 2.6-4.6 4.4-7.2 4.4zm12.8.1h-.2c-1.3 0-2.3-1-2.3-2.5 0-1.3 1-2.3 2.4-2.3 1.3 0 2.3 1 2.3 2.3 0 1.5-1 2.5-2.2 2.5z"/><path d="M260.1 313.7l-.7-1.4c-.3-.5-1.1-.8-1.8-.5-.4.2-.8.6-.8 1-.1.6.1 1.2.5 2.2l.1-.1c.3.4 1.3 2 2.3 1.4.7-.5 1.1-1.3.4-2.6zM265.9 310.4c-.1-.4-.3-.8-.8-.8-.7-.3-1.3 0-1.7.3-.5 0-1 .5-1 1-.2.2-.2.6 0 1v-.1c.5.9 1.7.8 2.5.3.6-.3 1-.6 1-1 .2-.2.2-.5 0-.7zM209.1 458.3c-.8.1-1.6.4-2.3 1v12.2c.5.9 1.1 1.6 1.6 2 1.8 0 4.6-7.3 4.9-8.9.8-1.4-1.5-5.4-4.2-6.3zM250.3 392.1c-.1-.3-.1-.5-.4-.5l-1.5-1.9c-.2-.3-.4-.6-.6-.6-.5-.2-1.1-.1-1.8.5-.4.3-.8.7-.8 1.5s.5 1.5.8 2c1.1 1.3 2.9 1.5 3.6 1 .7-.7.9-1.6.7-2zM266.5 224.1l-4 2c-1.5.9-2.5 1.6-2.5 3.2 0 2.5 1.5 3.5 3 3.5 1.2 0 2.8-.8 3.6-1.6l-.1-7.1zM267.5 357l-.6 2.3c-.2.3-.2.5 0 .5.3.2 1.3.2 1.6-.8.2-.7 0-1.4-1-2zM257.4 384.2l-1.5-1.4c-.1.8-.7 2.2.3 3 .3.4.6.4 1 0s.5-1.4.2-1.6zM206.5 298.4v.9l.4-.8-.4-.1zM208.9 519.1c-.1-6.8-.2-13.5-.3-20.3-.1-3.2-5-3.2-5 0-.1 4.3-.1 8.6-.2 12.8 0 2.5-.7 6.7.8 8.9.9 1.3 2.7 1.7 3.9.5l.1-.1c1-1 .8-2.5 0-3.5 0 0 0-.1-.1-.1-2-2.5-5.5 1.1-3.5 3.5 0 0 0 .1.1.1v-3.5l-.1.1c1.3.2 2.6.3 3.9.5-.5-.7-.2-3.9-.2-4.7 0-1.6 0-3.2.1-4.8 0-3.2.1-6.4.1-9.6h-5c.1 6.8.2 13.5.3 20.3.1 3.2 5.1 3.2 5.1-.1z"/><path d="M205 465.5c-.1.8-.1 1.5.2 2.3.1.3.2.6.4.9l.3.6c-.1-.1.4.3.4.2.9.8 2.4.1 2.1-1.2-.3-1-.5-2-.8-3-.3-1.2-2.1-1.2-2.4 0-.2.1-.2.2-.2.2-.4 1.6 2 2.2 2.4.7v-.2H205c.3 1 .5 2 .8 3l2.1-1.2c-.2-.2-.4-.3-.6-.4.2.2.4.5.6.7-.2-.6-.6-1.3-.5-1.9.1-.7-.2-1.3-.9-1.5-.6-.2-1.4.2-1.5.8z"/><path d="M204.4 463.7c.2.8.4 1.5.6 2.3.3 1.2 2.1 1.2 2.4 0 .2-.6.3-1.3.1-2-.2-.6-.6-1.1-1-1.5-1.1-1.2-2.9.6-1.8 1.8.1.1.3.3.4.5 0 0 0-.1 0 0s-.1.4-.1.5h2.4c-.2-.8-.4-1.5-.6-2.3-.4-1.5-2.8-.8-2.4.7zM205.8 469l.3 1.2c.3 1.2 2.1 1.2 2.4 0 .2-.9 0-1.7-.6-2.4-1.1-1.2-2.9.6-1.8 1.8 0 0-.1-.1 0 0s0 .1 0 0h2.4l-.3-1.2c-.4-1.6-2.8-1-2.4.6z"/><path d="M206.7 459.4c-.4.1-.6.3-.8.6-.2.4-.2.9 0 1.3 0-.3-.1-.6-.1-1-.1.3-.2.5-.3.8-.2.6 0 1.2.1 1.8.1.6.4 1.1 1.1 1.2.6.1 1.2-.3 1.4-.9.1-.6.2-1.1.3-1.7.1-.5.2-1.2-.2-1.6-.4-.5-1.1-.8-1.7-.4-.5.3-.9 1.2-.4 1.7v.1c-.1-.2-.1-.4-.2-.6.1.6-.1 1.4-.3 2 .8.1 1.6.2 2.5.3 0-.2-.1-.5-.1-.7v-.3c0-.2 0-.3-.1-.1v-.1c0-.1.1-.2.1-.2.2-.5.4-1 .1-1.6v1.3c-.2.2-.5.4-.7.6.7-.1 1-.9.9-1.5-.2-.8-.9-1.1-1.6-1zM175.6 410.8c3.2 0 3.2-5 0-5s-3.2 5 0 5zM203.8 417.1c.2 6.9.2 13.9-.1 20.8-.1 4.1-.7 8.5 3.4 10.7.2-1.5.4-3 .6-4.6-.2 0-.5.1-.7.1-3.2.4-1.8 5.3 1.3 4.8.2 0 .5-.1.7-.1 2.2-.3 2.4-3.6.6-4.6-2.3-1.2-.8-12.2-.8-14.3 0-4.3 0-8.6-.1-12.9 0-3.1-5-3.1-4.9.1zM204.3 393.3c.5 1.4-.3 3.2-.2 4.7.1 1.3 1.1 2.5 2.5 2.5 1.3 0 2.6-1.1 2.5-2.5-.2-2.1.8-4 0-6-.5-1.3-1.7-2.1-3.1-1.7-1.1.3-2.1 1.7-1.7 3z"/><path d="M205.6 394.8c3.2 0 3.2-5 0-5s-3.2 5 0 5z"/><path d="M206.9 394.4c.6-.4 1.1-.9 1.5-1.5.7-1.1.3-2.8-.9-3.4s-2.7-.3-3.4.9c-.1.2-.1.2.1-.1-.2.2-.1.1.2-.1-1.1.7-1.7 2.2-.9 3.4.7 1 2.2 1.6 3.4.8zM204 379.6v2.4h5c-.5-4.8.3-9.9 1.1-14.7.4-2.7 1-5.1-2.2-6.1-.8-.3-1.9 0-2.4.6-.1.1-.2.3-.4.4 1.4.6 2.8 1.2 4.3 1.8.1-.1.2-.3.2-.4 2.4-2.2-1.2-5.7-3.5-3.5-1.2 1.1-1.7 2.3-1.7 3.9 0 2 2.8 3.5 4.3 1.8.1-.1.2-.3.4-.4l-2.4.6c.2.1.4.1.6.2l-1.7-1.7c.4 1.7-.8 5.9-1 7.8-.4 3.3-.8 6.5-.5 9.7.4 3.1 5 3.3 5 0v-2.4c-.1-3.2-5.1-3.2-5.1 0zM204 324.2c.2 5.9.2 11.7 0 17.6-.1 1.9 2.2 3.1 3.8 2.2 2.1-1.3 3.3 3.5 4.3 4.5.4.4 1.3.6 1.5 1 .8.3.8.3.1 0-.6-.5-1-.3-1.1.7-1.6 2.8 2.7 5.3 4.3 2.5 1-1.7 2.3-3.3 1.6-5.4-.3-.9-1-1.4-1.6-2.1-.8-.9-1.3-1.7-1.9-2.8-2.1-3.7-5.9-5.2-9.7-2.8 1.3.7 2.5 1.4 3.8 2.2.2-5.9.2-11.7 0-17.6-.2-3.2-5.2-3.2-5.1 0z"/><path d="M208.3 323.4c3-6.6 2.9-13.8 3.5-20.9.2-2.2-2.9-3.3-4.3-1.8-1.8 1.9-2 3.9-1.2 6.4.7 2.3 4.2 2.5 4.8 0 .3-1.2.3-2 .4-3.2 0-.4-.1-.9-.3-1.3-.4-.6-.3-.8.3-.5.5-1.8 1.6-2.6.9-4.7-.3-.8-.9-1.4-1.3-2.1l-.9-.9c-.7-.4-.7-.9-.1-1.6-.2-2.1.3-2.6-1.3-4.3.1 1 .3 2 .4 3 .1-.2.2-.4.3-.7 1.3-2.9-3.1-5.5-4.3-2.5-.1.2-.2.4-.3.7-.5 1.1-.4 2.1.4 3-.2-.2-.7 2.5-.6 2.9.3 1.2 1.7 2 2 3 .5 2-.4 1.4-.8 3.2-.3 1.6.8 2.8.3 4.6h4.8c0-.5-.1-1-.1-1.6-1.4-.6-2.8-1.2-4.3-1.8-.5 6.1-.3 12.7-2.8 18.4-1.1 3 3.2 5.6 4.5 2.7zM203.8 254.7c.4 1.9 1 3.9 1 5.8 0 1.6-.2 3.2-.3 4.8-.2 3.2 4.8 3.2 5 0 .1-1.9.4-3.8.2-5.6-.2-2.1-.7-4.2-1.2-6.3-.5-3.2-5.3-1.9-4.7 1.3zM204 278.6v1.4c0 1.2 1 2.3 2.2 2.5s2.4-.6 2.7-1.8c.4-1.4.4-2.8.1-4.3-.3-1.3-1.9-2.1-3.1-1.7-1.4.4-2 1.7-1.7 3.1.1.7 0-.5 0 .2v.8c0 .2-.1.4-.1.6 1.6.2 3.3.4 4.9.7v-1.4c0-1.3-1.2-2.6-2.5-2.5-1.4 0-2.5 1-2.5 2.4z"/><path d="M203.9 237.6c1.4 3.6-.5 6.8-.4 10.4.1 3.2 5.1 3.2 5 0 0-2 .8-4 .9-6.1.1-1.9 0-3.9-.7-5.7-1.2-2.9-6-1.6-4.8 1.4zM208.6 229.6c.1-3.6-.2-7.1-.8-10.7-.5-3.2-5.3-1.8-4.8 1.3s.7 6.2.6 9.3c0 3.3 5 3.3 5 .1zM203.8 180.2c2.3 10.7-1.3 22.4.1 33.3.4 3.2 5.4 3.2 5 0-1.4-11.4 2.2-23.4-.2-34.6-.8-3.2-5.6-1.8-4.9 1.3zM203.3 99.4c2.5 9.7.6 19.7-.8 29.4-.4 3.1 4.4 4.5 4.8 1.3 1.5-10.6 3.5-21.5.8-32.1-.8-3.1-5.6-1.8-4.8 1.4zM206.1 141c.5 1.6-.6 3.4-.5 5 0 .7 1 .8 1.2.2.9-2.4.1-5 1-7.3.3-.8-.9-1.1-1.2-.3-.9 2.3-.1 4.9-1 7.3.4.1.8.1 1.2.2 0-1.9 1.1-3.5.5-5.4-.3-.8-1.5-.5-1.2.3z"/><path d="M205.8 146.2v.1c0 .8 1.2.8 1.2 0v-.1c0-.8-1.2-.8-1.2 0zM204.1 418.8c3.2 0 3.2-5 0-5s-3.2 5 0 5z"/><path d="M206.8 413.9h-.5c-.1 0-.2.1-.2.2-.1.5 0 .9.3 1.2.1.1.4.1.4-.1.1-1 .2-2 .1-3 0-.3-.5-.3-.5 0 .1.9 0 1.9-.1 2.8.1 0 .3-.1.4-.1-.2-.2-.2-.5-.2-.8-.1.1-.2.1-.2.2h.5c.3.1.3-.4 0-.4zM206.2 404.6c0 1 .1 2 .1 3 .1 1.8.2.4.3-.5.2-2.2 0-4.6 0-6.8-.2 0-.3 0-.5.1.4 1.6.4 3 .1 4.6-.1.3.4.4.5.1.4-1.7.4-3.4 0-5.1-.1-.3-.5-.2-.5.1.3 3 1.3 6.6.2 9.5-.1.3.4.4.5.1 1.1-3 .1-6.6-.2-9.6-.2 0-.3 0-.5.1.3 1.7.3 3.2 0 4.8.2 0 .3.1.5.1.3-1.7.3-3.3-.1-4.9-.1-.3-.5-.2-.5.1v4.6c0 1.5-.3 3-.3 4.6 0 .2.2.3.3.2.4-.1.6-.2.8-.5s-.1-1.7-.1-2c0-.9-.1-1.8-.1-2.7 0-.2-.5-.2-.5.1zM206.8 384.9c.3 0 .3-.5 0-.5-.4 0-.4.5 0 .5zM210.4 353.3v1.9c0 .3.3.3.5.1.4-.7.9-1.5 1.3-2.2.2-.3-.3-.5-.4-.3-.4.7-.9 1.5-1.3 2.2.2 0 .3.1.5.1v-1.9c-.1-.3-.6-.3-.6.1zM206.1 344.7c.2 0 .4.1.5.3.2.3.6 0 .4-.3-.2-.4-.6-.6-1.1-.5-.3.1-.1.6.2.5zM207.1 282.4c-.3 0-.6-.1-1-.1 0 .2 0 .3-.1.5h.6c.3 0 .3-.5 0-.5h-.6c-.3 0-.4.4-.1.5.3 0 .6.1 1 .1.3 0 .5-.5.2-.5zM206.6 275.1c.2-.2.2-.4.1-.7 0-.3-.5-.2-.5.1 0 .1-.1.2-.1.3-.1.3.3.6.5.3zM206.6 268.1c.3 0 .3-.5 0-.5s-.3.5 0 .5zM206.6 489.5c-.2 1.9-.2 3.8.2 5.4-.1-.3-.5-.2-.5.1 0 .5-.1.9-.1 1.4 0 .3.4.3.5.1.3-1.7.4-3.2.4-4.9 0-.2.4-4.9-.7-2.3-.5 1.2.2 2.7 0 3.9-.4 3.7-2.3 2.8-5.6 2-.3-.1-.5.3-.2.5 2.6 1.2 4.2 3.6 6.7 4.7.1.1.3 0 .4-.1.4-2.1-.6-2.5-1.4-4.7-.1-.3-.6-.2-.5.1 1.5 4.9.6 10.4.7 15.4 0 .3.5.3.5 0l.3-6.6c0-.3-.4-.3-.5-.1-1.1 3.7-.7 7.2 0 11 0 .2.4.2.5 0 .3-1.6.3-2.9 0-4.5-.1-.3-.5-.2-.5.1-.2 2.7.1 5.3-.8 7.9 0 .1 0 .2.1.2.3.8.5 1.5.5 2.3 0 .3.5.3.5 0 0-.4.2-5.1-.1-3.4-.2 1.1-.1 2.3-.2 3.5 0 .3.5.3.5 0 .2-2.1 0-4-.4-6-.1-.3-.5-.2-.5.1.1 1.4 0 3.2.4 4.5.4 1.1.1.5.3-.2.1-.5-.1-2.1-.1-2.6 0-1.6.3-3.2.2-4.9.3 2.7-.5-1.3-.5-2-.1-1.1.4-3.9.1-4.5.1.3-.3 3.8.1 3.2.9-1.8.3-6.2.4-8.4 0-1.4.3-3.2-.8-4.1.1.3 0 .6-.4.9-.3 1.2-.7 1.1-1.3-.1-.3-.2-1.5-1.1-1.7-1.4-.7-.9-.4 0 .9.1 1.1.1 2 .2 3.1.2.1 0 .3-.1.2-.2-.2-3 .3-6.2-.1-9.1 0-.3-.5-.2-.5.1.1 2.9-.4 6.7.2 9.4.1.3.5.2.5-.1-.2-2.4-.2-4.6 0-7-.3-.2-.8-.2-.8.1z"/><g><path d="M206.4 470.4c0 .2.1.3.1.5 0 .1.1.2.2.2s.1.1.2.1c.1-.1.3-.2.4-.3l-.1-.1c-.3-.2-.6.2-.4.4l.1.1c.2.2.5 0 .4-.3-.1-.2-.2-.3-.5-.3l.2.2c0-.2-.1-.3-.1-.5-.1-.4-.6-.3-.5 0z"/></g><g><path d="M-87 47.2c.3 0 .3-.5 0-.5-.3.1-.3.5 0 .5z"/></g></svg>